<?xml version="1.0" standalone="no"?>
<!DOCTYPE svg PUBLIC "-//W3C//DTD SVG 20010904//EN"
 "http://www.w3.org/TR/2001/REC-SVG-20010904/DTD/svg10.dtd">
<svg version="1.0" xmlns="http://www.w3.org/2000/svg"
 width="796.000000pt" height="796.000000pt" viewBox="0 0 796.000000 796.000000"
 preserveAspectRatio="xMidYMid meet">
<metadata>
Created by potrace 1.14, written by Peter Selinger 2001-2017
</metadata>
<g transform="translate(0.000000,796.000000) scale(0.100000,-0.100000)"
fill="#000000" stroke="none">
<path d="M0 3980 l0 -3980 3980 0 3980 0 0 3980 0 3980 -3980 0 -3980 0 0
-3980z m3396 2849 c17 -18 17 -23 4 -46 -12 -21 -34 -31 -115 -54 -161 -45
-439 -152 -555 -214 -67 -36 -92 -43 -117 -34 -29 11 -31 51 -4 78 41 41 352
175 548 236 82 26 153 48 158 50 29 10 64 3 81 -16z m1337 -5 c207 -58 585
-212 639 -260 34 -32 17 -84 -28 -84 -11 0 -70 24 -130 53 -174 86 -357 155
-533 202 -52 13 -98 30 -103 37 -20 33 5 78 43 78 11 0 61 -12 112 -26z
m-1135 -26 c3 -24 0 -28 -23 -28 -27 0 -41 20 -31 46 10 27 51 13 54 -18z
m802 17 c0 -8 -6 -15 -14 -15 -17 0 -28 14 -19 24 12 12 33 6 33 -9z m-161
-158 c283 -211 286 -213 461 -317 176 -104 455 -246 610 -310 58 -24 135 -56
172 -71 87 -36 424 -133 553 -159 173 -35 343 -58 560 -75 116 -9 223 -21 238
-27 61 -23 62 -32 60 -478 -2 -500 -14 -658 -74 -1030 -36 -220 -123 -565
-204 -813 -40 -125 -152 -393 -210 -507 -64 -123 -79 -160 -65 -160 6 0 10 -9
10 -20 0 -17 -3 -19 -18 -11 -15 8 -22 4 -35 -19 -15 -25 -15 -28 -1 -34 9 -3
14 -12 11 -20 -3 -8 2 -16 14 -19 24 -6 25 -34 2 -60 -14 -15 -19 -41 -21
-113 -3 -72 -7 -94 -18 -94 -9 0 -14 -11 -14 -31 0 -20 -8 -38 -22 -50 l-23
-19 28 10 c16 5 29 10 31 10 1 0 3 -13 4 -29 3 -35 -19 -55 -49 -46 -18 6 -21
4 -16 -9 4 -10 3 -14 -3 -11 -12 8 -50 -16 -50 -32 0 -7 -11 -15 -25 -19 -22
-5 -24 -10 -22 -60 1 -30 -2 -56 -8 -59 -5 -2 2 -2 18 1 36 8 77 -19 77 -50 0
-57 -350 -406 -571 -569 -112 -83 -199 -142 -227 -154 -30 -12 -37 -12 -58 2
-29 18 -31 48 -6 73 36 33 68 58 85 65 17 6 23 28 10 41 -14 14 -12 45 3 48
11 2 10 6 -7 16 -16 10 -19 10 -13 1 5 -9 2 -10 -9 -6 -10 4 -24 10 -32 13 -8
3 -15 1 -15 -6 0 -6 4 -9 9 -5 22 13 17 -11 -5 -28 -19 -14 -23 -15 -18 -2 5
12 2 14 -17 6 -18 -6 -23 -15 -21 -35 3 -19 0 -25 -11 -20 -9 3 -13 14 -10 27
3 13 1 17 -4 11 -4 -7 -17 -14 -28 -16 -14 -3 -19 -11 -17 -27 2 -19 0 -21
-12 -12 -11 9 -17 8 -30 -4 -9 -9 -14 -21 -11 -26 4 -5 1 -9 -4 -9 -20 0 -11
20 27 62 l37 42 -32 -19 c-18 -11 -33 -24 -33 -29 0 -5 -3 -6 -7 -2 -4 3 8 20
26 36 46 42 29 37 -29 -9 -27 -22 -55 -41 -62 -44 -10 -4 -10 -7 1 -15 9 -7
10 -12 2 -16 -16 -10 -14 -26 4 -26 8 0 15 -4 15 -10 0 -5 -7 -7 -16 -3 -9 3
-20 0 -25 -8 -7 -11 -9 -9 -9 6 0 12 5 26 12 33 6 6 9 14 6 18 -10 9 -49 -16
-43 -27 4 -5 3 -9 -2 -8 -21 4 -34 -2 -27 -13 5 -7 2 -9 -8 -6 -8 4 -28 -5
-44 -19 -16 -14 -42 -32 -59 -40 -16 -8 -39 -23 -50 -33 -11 -10 -40 -29 -65
-42 -72 -40 -224 -127 -240 -138 -46 -30 -352 -175 -453 -215 -91 -36 -125
-45 -149 -40 -82 18 -417 180 -631 304 -49 28 -91 51 -93 51 -3 0 -35 20 -72
44 -89 57 -108 67 -118 58 -5 -4 -6 -3 -2 2 7 8 -30 37 -84 65 -16 8 -28 18
-28 22 0 17 -67 40 -91 31 -13 -5 -31 -7 -39 -4 -13 5 -13 3 -1 -11 12 -15 11
-17 -7 -17 -15 0 -19 5 -15 20 4 16 1 18 -17 15 -12 -2 -30 0 -40 5 -11 6 -21
5 -28 -2 -8 -8 -9 -5 -5 10 5 20 6 20 29 5 32 -21 42 -10 16 17 -17 18 -24 20
-41 10 -24 -12 -41 -6 -41 16 0 8 -4 14 -10 14 -5 0 -10 7 -10 15 0 8 -6 12
-14 9 -19 -7 -1 -64 20 -64 17 0 18 -12 2 -28 -9 -9 -7 -17 8 -34 l19 -23 -26
23 c-14 12 -29 19 -32 15 -4 -3 -7 -1 -7 5 0 5 6 13 13 16 6 4 2 4 -10 2 -14
-2 -20 1 -17 8 3 7 -5 21 -16 31 -20 18 -20 18 -18 -6 2 -16 -2 -23 -10 -21
-8 1 -11 -2 -7 -8 3 -5 12 -10 18 -10 7 0 29 -14 50 -31 84 -69 21 -133 -75
-76 -67 40 -212 140 -263 181 -141 116 -192 164 -356 338 -158 167 -167 182
-130 230 13 16 17 29 10 39 -5 8 -9 26 -9 41 0 17 -8 31 -20 38 -11 6 -20 20
-20 30 0 11 -4 20 -10 20 -5 0 -10 7 -10 15 0 8 -4 15 -10 15 -5 0 -10 9 -10
20 0 11 -7 20 -15 20 -8 0 -15 4 -15 9 0 5 -14 12 -30 16 -17 4 -30 11 -30 16
0 5 -7 9 -16 9 -12 0 -14 5 -9 18 5 9 9 31 10 47 2 22 1 23 -2 5 -3 -14 -9
-29 -15 -35 -7 -7 -9 6 -5 43 5 41 3 54 -8 59 -17 6 -21 33 -5 33 6 0 10 9 10
20 0 11 -4 20 -10 20 -5 0 -10 9 -10 20 0 11 -6 20 -14 20 -18 0 -27 91 -14
139 6 19 7 55 4 78 -5 36 -3 43 12 44 16 1 16 2 0 6 -10 2 -18 8 -18 12 0 12
38 40 45 33 4 -4 1 3 -6 16 -8 12 -17 22 -22 22 -4 0 -7 21 -6 46 2 28 -2 48
-10 53 -7 5 -11 10 -10 12 2 2 -33 96 -78 209 -44 113 -90 234 -101 270 -102
322 -189 728 -227 1060 -17 149 -40 1000 -30 1089 7 59 46 111 83 111 43 0
502 41 572 51 222 31 640 148 845 234 210 89 413 189 609 299 59 33 124 70
145 81 60 34 384 259 481 335 126 98 150 112 184 105 16 -3 122 -74 235 -158z
m-2556 -288 c15 -22 17 -33 10 -55 -19 -59 -102 -65 -123 -9 -10 27 2 74 23
87 23 16 70 3 90 -23z m540 -70 c40 -21 57 -51 57 -105 0 -45 -4 -56 -32 -83
-26 -26 -40 -31 -79 -31 -114 0 -157 129 -68 204 33 28 84 34 122 15z m3645
-24 c54 -45 49 -120 -9 -150 -40 -21 -63 -19 -97 10 -38 32 -47 67 -27 109 28
58 85 72 133 31z m396 -244 c33 -36 -5 -88 -51 -70 -17 6 -23 16 -23 37 0 51
41 69 74 33z m-4566 -19 c29 -37 0 -92 -48 -92 -35 0 -50 17 -50 56 0 57 63
80 98 36z m-784 -1218 c21 -20 21 -16 -13 -152 -37 -144 -65 -291 -87 -442
-18 -131 -26 -150 -57 -150 -54 0 -58 41 -27 250 25 166 97 469 118 493 19 21
46 22 66 1z m6218 -1 c33 -38 113 -404 138 -628 11 -99 14 -414 4 -439 -4 -9
-18 -16 -34 -16 -27 0 -28 3 -34 58 -3 31 -8 116 -11 187 -8 168 -45 396 -97
599 -53 208 -55 226 -32 243 24 18 48 16 66 -4z m407 -461 c11 -21 41 -329 41
-423 0 -76 -7 -89 -41 -82 -25 5 -26 7 -38 136 -7 73 -19 179 -28 236 -18 126
-14 151 27 151 18 0 33 -7 39 -18z m-7028 -74 c7 -17 5 -55 -8 -137 l-18 -114
-39 -13 -39 -14 6 43 c3 23 9 84 13 135 7 97 18 122 55 122 11 0 24 -10 30
-22z m559 -607 c5 -11 10 -48 10 -83 0 -90 35 -342 65 -471 13 -54 12 -64 -1
-84 -31 -48 -76 -22 -93 54 -63 283 -90 560 -59 591 19 19 66 15 78 -7z m5930
4 c16 -19 2 -192 -31 -395 -38 -233 -51 -270 -93 -270 -48 0 -58 46 -31 149
18 73 41 224 55 381 7 69 17 131 22 138 14 17 63 15 78 -3z m-347 -697 c28
-22 32 -63 7 -88 -21 -21 -49 -20 -77 2 -19 16 -16 55 7 78 23 23 40 25 63 8z
m-5189 -114 c3 -8 10 -12 16 -9 15 9 12 -13 -6 -40 -22 -33 -61 -33 -76 0 -9
21 -8 28 7 45 22 24 51 26 59 4z m5241 -334 c25 -26 30 -38 30 -81 0 -45 -4
-54 -33 -80 -57 -51 -143 -33 -176 35 -14 31 -15 42 -5 78 7 24 12 47 11 51
-2 5 2 6 7 3 5 -4 13 -1 16 5 24 38 106 33 150 -11z m-5497 -27 c-2 -17 -9
-28 -18 -28 -9 0 -16 11 -18 28 -3 22 1 27 18 27 17 0 21 -5 18 -27z m358
-213 c20 0 72 -60 78 -91 13 -66 -50 -139 -121 -139 -41 0 -90 41 -102 87 -20
71 51 164 114 148 11 -3 25 -5 31 -5z m5419 -390 c-3 -5 1 -10 9 -10 18 0 22
-25 6 -35 -6 -4 -9 -12 -8 -18 5 -20 -164 -237 -189 -243 -30 -8 -43 2 -43 34
0 20 28 60 101 147 90 107 116 134 127 135 2 0 0 -4 -3 -10z m-5834 -150 c38
-47 72 -95 75 -107 9 -34 -2 -53 -31 -53 -27 0 -55 27 -111 107 -125 178 -131
189 -91 195 28 5 67 -30 158 -142z m397 34 c27 -18 30 -69 5 -96 -23 -25 -68
-23 -87 4 -22 32 -20 55 9 83 28 29 42 31 73 9z m5020 1 c10 -10 -27 -74 -53
-91 -20 -13 -28 -14 -40 -4 -23 19 -18 51 12 82 25 26 62 32 81 13z m-249
-281 c24 -20 31 -34 31 -62 0 -98 -130 -114 -163 -20 -10 27 13 77 42 93 38
20 55 18 90 -11z m-904 -74 c3 -5 -1 -10 -9 -10 -9 0 -16 5 -16 10 0 6 4 10 9
10 6 0 13 -4 16 -10z m-55 -24 c0 -3 -4 -8 -10 -11 -5 -3 -10 -1 -10 4 0 6 5
11 10 11 6 0 10 -2 10 -4z m27 -18 c-3 -8 -6 -5 -6 6 -1 11 2 17 5 13 3 -3 4
-12 1 -19z m-17 -13 c0 -2 -9 -9 -20 -15 -16 -9 -18 -8 -14 5 5 13 34 22 34
10z m-213 -11 c-3 -3 -12 -4 -19 -1 -8 3 -5 6 6 6 11 1 17 -2 13 -5z m133 -9
c0 -8 -7 -15 -15 -15 -13 0 -14 3 -3 15 16 18 18 18 18 0z m110 6 c0 -5 -7
-12 -16 -15 -14 -5 -15 -4 -4 9 14 17 20 19 20 6z m-160 -34 c0 -5 -4 -5 -10
-2 -5 3 -10 14 -10 23 0 15 2 15 10 2 5 -8 10 -19 10 -23z m-2505 3 c3 -5 2
-10 -4 -10 -5 0 -13 5 -16 10 -3 6 -2 10 4 10 5 0 13 -4 16 -10z m2432 4 c-3
-3 -12 -4 -19 -1 -8 3 -5 6 6 6 11 1 17 -2 13 -5z m178 -12 c-3 -3 -11 0 -18
7 -9 10 -8 11 6 5 10 -3 15 -9 12 -12z m-2650 -2 c3 -6 -1 -7 -9 -4 -18 7 -21
14 -7 14 6 0 13 -4 16 -10z m62 -22 c-3 -8 -6 -5 -6 6 -1 11 2 17 5 13 3 -3 4
-12 1 -19z m133 -3 c0 6 7 -3 15 -19 9 -16 14 -34 11 -40 -2 -6 -5 -4 -5 5 -1
8 -12 26 -26 39 -14 13 -25 28 -25 34 0 5 7 1 15 -10 8 -10 15 -14 15 -9z
m2180 -5 c0 -5 -2 -10 -4 -10 -3 0 -8 5 -11 10 -3 6 -1 10 4 10 6 0 11 -4 11
-10z m-2120 -31 c0 -6 -4 -7 -10 -4 -5 3 -10 11 -10 16 0 6 5 7 10 4 6 -3 10
-11 10 -16z m2100 0 c0 -6 -4 -7 -10 -4 -5 3 -10 11 -10 16 0 6 5 7 10 4 6 -3
10 -11 10 -16z m-2873 -78 c101 -75 249 -166 411 -251 58 -30 110 -63 115 -72
18 -27 -7 -68 -41 -68 -37 0 -306 149 -485 270 -154 103 -177 131 -142 170 10
11 25 20 35 20 9 0 57 -31 107 -69z m3777 53 c26 -10 19 -57 -11 -86 -50 -47
-265 -185 -425 -273 -132 -72 -163 -86 -195 -83 -33 3 -38 6 -41 31 -2 16 2
35 8 42 7 8 80 50 163 93 158 82 279 157 382 236 58 44 85 53 119 40z m-2908
-69 c91 -69 18 -217 -93 -189 -77 19 -104 113 -50 173 44 47 95 53 143 16z
m1920 -131 c7 -28 -9 -46 -33 -37 -13 5 -18 45 -6 56 14 15 33 6 39 -19z
m-1986 -300 c11 -12 10 -18 -4 -32 -16 -16 -18 -16 -31 2 -11 14 -12 23 -4 33
15 17 24 16 39 -3z"/>
<path d="M3949 6522 c-15 -9 -87 -62 -160 -118 -239 -179 -454 -314 -709 -443
-523 -265 -996 -406 -1535 -460 -254 -25 -235 0 -235 -299 1 -840 132 -1484
429 -2116 132 -279 358 -638 540 -856 130 -155 359 -392 511 -526 102 -91 380
-292 525 -381 230 -140 626 -343 669 -343 32 0 278 113 447 205 380 208 626
384 912 657 284 270 490 527 720 900 254 410 451 991 541 1598 38 253 48 384
53 720 5 308 4 349 -11 378 -20 39 -50 48 -211 62 -251 23 -608 92 -810 158
-322 105 -607 230 -880 385 -180 103 -513 324 -634 421 -52 42 -104 76 -115
76 -12 0 -33 -8 -47 -18z m136 -438 c411 -303 935 -579 1393 -733 300 -100
454 -133 801 -167 l53 -6 -6 -111 c-10 -162 -35 -485 -42 -537 -34 -258 -104
-601 -127 -625 -7 -7 -8 -6 -4 1 12 21 -4 70 -26 80 -12 5 -20 16 -18 24 8 36
8 111 -2 117 -6 4 -8 -9 -4 -37 5 -42 -8 -90 -25 -90 -5 0 -6 10 -4 23 10 44
46 234 61 322 19 111 45 426 45 558 0 106 -13 147 -53 169 -31 17 -163 37
-179 27 -7 -5 -11 -9 -8 -10 3 0 43 -11 90 -22 78 -20 85 -24 88 -48 2 -18 -5
-35 -22 -53 -25 -24 -26 -29 -26 -153 0 -130 -21 -377 -40 -468 -6 -27 -17
-86 -26 -130 -8 -43 -20 -85 -25 -92 -6 -7 -8 -16 -5 -22 9 -15 -16 -115 -32
-128 -8 -7 -12 -21 -10 -31 6 -23 -6 -47 -19 -39 -6 4 -10 20 -11 37 0 17 -6
37 -12 45 -8 9 -7 14 5 19 19 7 19 32 0 40 -15 5 -22 56 -7 56 4 0 8 25 9 56
1 31 6 61 11 67 5 7 8 26 7 44 -2 17 3 80 11 140 21 162 34 456 23 497 -12 44
-58 83 -107 91 -20 4 -72 15 -114 26 -99 24 -125 24 -138 -2 -18 -32 9 -64 67
-78 26 -7 71 -20 98 -29 45 -15 50 -20 53 -50 2 -22 -2 -34 -12 -38 -18 -7
-230 42 -379 87 -319 97 -920 375 -1300 601 -55 32 -108 58 -118 58 -11 0 -43
-15 -72 -33 -29 -18 -92 -55 -142 -81 -49 -27 -94 -52 -100 -56 -17 -13 -173
-90 -182 -90 -4 0 0 5 9 11 19 11 13 39 -8 39 -8 0 -14 10 -14 23 0 20 25 37
158 112 86 49 193 110 238 137 106 63 126 63 235 -3 310 -187 784 -422 1094
-542 244 -95 292 -109 315 -95 12 8 20 24 20 40 0 31 -20 44 -110 73 -30 10
-75 26 -100 36 -25 10 -85 34 -135 53 -117 45 -237 101 -525 245 -291 146
-381 196 -544 305 -71 47 -135 86 -143 86 -7 0 -74 -40 -148 -90 -74 -49 -136
-90 -139 -90 -2 0 -51 -28 -108 -61 -56 -34 -132 -75 -168 -91 -36 -16 -72
-33 -81 -38 -25 -13 -65 12 -61 39 2 19 -2 21 -20 16 -13 -3 15 14 61 40 165
90 328 190 494 302 98 66 173 111 180 107 7 -4 82 -53 167 -109 85 -56 193
-123 240 -150 47 -26 96 -55 110 -63 23 -14 24 -14 10 0 -23 24 -534 371 -545
371 -5 0 -77 -45 -160 -100 -82 -55 -203 -130 -267 -167 -196 -112 -238 -125
-238 -72 0 29 25 50 160 131 117 71 284 182 410 274 52 39 97 70 100 70 3 1
46 -29 95 -65z m-1237 -452 c27 -11 70 -33 96 -51 l47 -33 60 21 c69 23 72 12
3 -14 l-46 -17 90 -89 c95 -93 187 -220 267 -371 l46 -87 46 35 c92 70 230
122 382 145 134 19 364 7 476 -25 196 -57 429 -197 557 -336 326 -353 407
-847 213 -1299 -19 -46 -34 -85 -33 -87 2 -1 39 -26 83 -55 305 -198 574 -512
575 -670 1 -192 -307 -581 -562 -710 -159 -80 -258 -103 -453 -102 -187 0
-260 15 -415 87 -68 31 -124 49 -195 61 -460 79 -1027 457 -1486 990 -331 386
-633 986 -704 1399 -38 224 -3 477 94 670 l46 92 -60 -7 c-33 -4 -119 -11
-191 -15 -212 -11 -166 10 64 29 173 14 209 20 220 35 60 83 150 174 231 236
208 156 414 219 549 168z m2349 -878 c-3 -3 -12 -4 -19 -1 -8 3 -5 6 6 6 11 1
17 -2 13 -5z m507 -55 c21 -30 6 -63 -29 -67 -16 -2 -32 2 -36 10 -10 16 -12
62 -2 71 14 14 53 6 67 -14z m-414 7 c0 -2 -7 -7 -16 -10 -8 -3 -12 -2 -9 4 6
10 25 14 25 6z m45 -16 c19 -8 19 -9 -2 -9 -12 -1 -25 4 -28 9 -7 12 2 12 30
0z m70 -20 c13 -6 15 -9 5 -9 -8 0 -22 4 -30 9 -18 12 -2 12 25 0z m-110 -40
c3 -5 1 -10 -4 -10 -6 0 -11 5 -11 10 0 6 2 10 4 10 3 0 8 -4 11 -10z m185 -4
c0 -2 -7 -7 -16 -10 -8 -3 -12 -2 -9 4 6 10 25 14 25 6z m-3175 -1450 c13 5
65 -40 65 -56 0 -6 9 -15 20 -22 11 -7 20 -18 20 -25 0 -7 4 -13 9 -13 5 0 37
-44 72 -97 115 -180 289 -403 408 -522 110 -111 219 -194 328 -250 52 -26 69
-54 54 -87 -14 -32 -48 -31 -108 4 -214 126 -302 201 -457 387 -119 142 -211
270 -299 414 -104 171 -174 312 -136 274 6 -6 17 -9 24 -7z m1248 -1260 c116
-72 192 -112 287 -150 116 -48 132 -49 237 -14 90 29 95 30 113 13 45 -41 18
-72 -95 -110 -95 -32 -142 -30 -261 10 -80 28 -207 88 -273 129 -153 96 -172
110 -177 132 -8 30 11 54 42 54 13 0 70 -29 127 -64z"/>
<path d="M4952 5438 c8 -24 213 -121 403 -191 184 -68 243 -86 364 -111 98
-21 112 -22 109 -8 -2 11 -44 26 -149 53 -162 42 -334 102 -515 179 -190 83
-216 92 -212 78z"/>
<path d="M2642 5505 c-162 -63 -360 -209 -456 -338 -123 -164 -176 -333 -176
-558 0 -321 179 -771 493 -1239 227 -340 552 -662 902 -897 250 -168 546 -295
720 -310 54 -4 88 -15 148 -45 145 -72 247 -100 384 -106 102 -4 138 -1 215
17 109 25 220 71 302 126 163 108 415 430 416 530 0 71 -164 286 -324 426
-171 148 -355 257 -526 311 -59 18 -98 23 -180 23 -100 0 -109 -2 -173 -34
-49 -25 -87 -55 -136 -107 -80 -86 -130 -176 -166 -299 -14 -49 -26 -90 -28
-91 -5 -4 -99 24 -107 32 -13 13 23 159 60 240 33 73 104 177 155 228 23 23
28 32 15 29 -13 -4 -19 1 -22 18 -2 14 -12 25 -25 29 -12 3 -31 17 -43 33 -12
15 -27 27 -33 27 -7 0 -17 10 -22 23 -8 17 -20 23 -52 25 -35 3 -43 7 -43 23
0 10 -7 19 -15 19 -8 0 -15 7 -15 15 0 8 -9 15 -20 15 -11 0 -20 4 -20 9 0 5
-14 14 -30 21 -17 7 -29 15 -26 17 2 3 14 -1 26 -7 16 -9 20 -9 15 -1 -4 7 -2
18 5 26 9 11 4 11 -32 0 -93 -28 -198 -67 -348 -129 -155 -65 -182 -39 -84 81
202 248 198 242 190 288 -4 21 -13 35 -21 35 -8 0 -15 4 -15 10 0 12 -48 60
-60 60 -6 0 -10 4 -10 9 0 17 -62 79 -75 75 -7 -3 -33 -25 -59 -49 -62 -57
-179 -117 -291 -149 -141 -39 -137 -40 -157 24 -10 30 -15 57 -10 60 4 4 45
17 92 29 417 108 515 398 296 881 -106 236 -287 460 -433 538 -73 39 -114 40
-201 7z m64 -177 c146 -109 303 -325 368 -506 36 -102 78 -270 74 -301 -2 -20
-18 -34 -71 -65 l-68 -39 6 -51 c4 -28 9 -53 12 -56 2 -2 31 11 63 29 59 32
78 28 48 -11 -12 -15 -105 -68 -119 -68 -4 0 -12 24 -19 53 -34 147 -133 363
-242 528 -69 104 -234 277 -310 325 -27 16 -48 32 -48 35 0 3 29 26 64 52 136
100 188 116 242 75z m-285 -215 c228 -155 427 -475 509 -818 15 -61 17 -81 7
-87 -21 -13 -23 -10 -40 71 -21 97 -64 185 -92 189 -16 2 -25 18 -39 66 -34
122 -226 379 -354 478 -88 67 -107 70 -149 25 -37 -41 -42 -40 -16 1 37 59 86
112 103 112 10 0 42 -16 71 -37z m122 -1039 c24 -38 74 -109 110 -157 l66 -89
-2 60 c-2 53 15 113 32 112 3 -1 27 -44 53 -98 158 -327 718 -881 1070 -1057
50 -25 111 -47 139 -51 54 -7 63 -16 75 -78 l7 -39 -79 5 c-46 4 -102 15 -134
28 -30 12 -61 23 -68 24 -8 1 -17 8 -21 15 -6 10 -12 9 -24 -3 -20 -21 -34
-20 -46 2 -9 15 -10 15 -11 1 0 -21 -22 -30 -41 -18 -12 8 -12 9 1 7 15 -3 20
3 20 22 0 14 -38 12 -42 -2 -3 -9 -9 -8 -22 5 -10 9 -24 17 -32 17 -8 0 -14 7
-14 15 0 8 -5 15 -11 15 -5 0 -7 -5 -3 -12 4 -6 -4 -4 -17 5 -13 10 -24 23
-24 30 0 6 -9 12 -20 12 -11 0 -19 6 -17 13 1 6 -1 11 -5 10 -15 -4 -54 23
-48 33 4 5 2 8 -3 7 -13 -4 -169 120 -261 207 -118 112 -247 260 -372 426
-183 244 -270 397 -333 583 -45 136 -46 159 -2 80 19 -33 54 -91 79 -130z
m2045 -840 c214 -62 416 -187 606 -377 125 -125 129 -130 110 -146 -11 -9 -38
-38 -59 -64 -22 -27 -52 -63 -67 -80 l-26 -32 -89 85 c-100 96 -240 204 -357
275 -85 50 -252 135 -306 153 -31 11 -32 13 -18 34 37 56 78 126 78 132 0 3
-7 6 -15 6 -8 0 -38 -34 -67 -75 -29 -41 -55 -75 -58 -75 -3 0 -12 4 -19 9
-21 13 9 67 74 137 48 51 52 53 90 47 22 -3 77 -16 123 -29z m-163 -266 c171
-67 386 -201 529 -330 64 -57 199 -214 230 -269 14 -24 -11 -5 -85 64 -220
207 -599 443 -794 496 -63 17 -70 21 -67 41 7 59 33 59 187 -2z m-1135 -238
c0 -5 8 -7 18 -3 9 3 14 3 10 -2 -4 -4 -3 -14 3 -22 13 -15 33 -18 25 -4 -4 5
5 4 18 -2 20 -10 22 -15 13 -26 -9 -12 -9 -13 1 -7 6 4 12 2 12 -3 0 -6 10
-10 23 -8 13 1 21 -3 20 -10 -2 -7 3 -13 10 -13 7 0 21 -11 31 -25 10 -13 22
-22 26 -20 4 3 11 -3 14 -12 6 -14 9 -15 16 -4 6 11 13 9 33 -11 14 -14 28
-24 30 -22 2 3 16 -2 31 -10 18 -9 23 -16 14 -19 -7 -3 -1 -6 13 -6 15 -1 29
-8 33 -16 3 -8 3 -15 1 -15 -11 0 -162 84 -192 106 -17 13 -34 24 -38 24 -7 0
-185 130 -185 136 0 2 5 4 10 4 6 0 10 -4 10 -10z m505 -68 c-3 -3 -11 0 -18
7 -9 10 -8 11 6 5 10 -3 15 -9 12 -12z m1599 -51 c5 -7 -56 -100 -113 -171
-19 -23 -21 -24 -37 -8 -15 15 -12 22 56 102 71 84 83 95 94 77z m-1669 -160
c-6 -5 -25 10 -25 20 0 5 6 4 14 -3 8 -7 12 -15 11 -17z"/>
<path d="M1550 2891 c0 -5 7 -11 14 -14 10 -4 13 -1 9 9 -6 15 -23 19 -23 5z"/>
<path d="M6265 2610 c-3 -5 -1 -10 4 -10 6 0 11 5 11 10 0 6 -2 10 -4 10 -3 0
-8 -4 -11 -10z"/>
<path d="M6220 2540 c-6 -11 -8 -20 -6 -20 3 0 10 9 16 20 6 11 8 20 6 20 -3
0 -10 -9 -16 -20z"/>
<path d="M6085 1950 c3 -5 8 -10 11 -10 2 0 4 5 4 10 0 6 -5 10 -11 10 -5 0
-7 -4 -4 -10z"/>
<path d="M6050 1899 c0 -5 5 -7 10 -4 6 3 10 8 10 11 0 2 -4 4 -10 4 -5 0 -10
-5 -10 -11z"/>
<path d="M5683 1567 c-35 -15 -27 -27 10 -15 40 14 41 14 25 20 -7 3 -23 1
-35 -5z"/>
<path d="M2286 1557 c3 -10 9 -15 12 -12 3 3 0 11 -7 18 -10 9 -11 8 -5 -6z"/>
<path d="M5473 1523 c-7 -3 -13 -8 -13 -13 0 -10 24 -7 28 4 5 11 -1 14 -15 9z"/>
<path d="M5649 1513 c-13 -17 -13 -17 6 -3 11 8 22 16 24 17 2 2 0 3 -6 3 -6
0 -17 -8 -24 -17z"/>
<path d="M5607 1505 c-8 -20 -4 -29 11 -24 5 2 6 13 2 23 -6 19 -7 19 -13 1z"/>
<path d="M5311 1489 c-13 -10 -18 -19 -11 -19 12 0 45 29 39 35 -2 2 -15 -5
-28 -16z"/>
<path d="M2346 1492 c-3 -6 1 -13 10 -16 24 -9 34 -7 34 6 0 6 -3 8 -7 5 -3
-4 -12 -2 -19 4 -7 6 -14 6 -18 1z"/>
<path d="M2400 1480 c0 -5 5 -10 11 -10 5 0 7 5 4 10 -3 6 -8 10 -11 10 -2 0
-4 -4 -4 -10z"/>
<path d="M2492 1485 c4 -4 3 -14 -4 -22 -6 -7 -8 -16 -5 -19 3 -3 10 3 16 15
8 15 8 22 -1 27 -7 4 -10 4 -6 -1z"/>
<path d="M2436 1464 c-21 -21 -20 -33 2 -27 10 2 18 13 18 24 0 23 -1 23 -20
3z"/>
<path d="M2641 1464 c0 -11 3 -14 6 -6 3 7 2 16 -1 19 -3 4 -6 -2 -5 -13z"/>
<path d="M5540 1472 c0 -5 -20 -8 -47 -7 l-48 4 28 -25 c22 -19 32 -22 48 -14
13 7 19 7 19 0 0 -10 -18 -14 -50 -11 -8 0 -21 -3 -29 -8 -12 -8 -12 -14 -3
-33 11 -21 12 -21 7 -1 -5 17 -2 20 14 16 23 -6 71 23 71 44 0 8 3 12 8 9 4
-2 15 2 25 9 14 10 15 15 6 21 -7 4 -15 2 -17 -5 -3 -9 -7 -9 -18 0 -8 7 -14
7 -14 1z m-27 -29 c-7 -2 -19 -2 -25 0 -7 3 -2 5 12 5 14 0 19 -2 13 -5z"/>
<path d="M2556 1461 c-3 -5 1 -12 10 -15 27 -11 37 -7 24 9 -14 17 -26 19 -34
6z"/>
<path d="M5283 1443 c-4 -10 -11 -21 -17 -25 -8 -5 -7 -8 1 -8 17 0 44 30 38
41 -9 13 -15 11 -22 -8z"/>
<path d="M2491 1422 c-18 -34 -12 -47 10 -23 15 15 18 26 11 33 -7 7 -14 4
-21 -10z"/>
<path d="M2546 1423 c-6 -14 -5 -15 5 -6 7 7 10 15 7 18 -3 3 -9 -2 -12 -12z"/>
<path d="M2451 1413 c7 -10 15 -20 16 -22 2 -2 3 5 3 17 0 14 -6 22 -16 22
-14 0 -15 -3 -3 -17z"/>
<path d="M2590 1414 c0 -11 7 -29 16 -40 14 -18 15 -18 8 6 -3 14 -10 32 -15
40 -7 12 -8 11 -9 -6z"/>
<path d="M2708 1423 c-10 -2 -18 -13 -18 -24 0 -11 5 -17 10 -14 6 4 8 10 5
15 -3 4 4 6 15 3 11 -3 20 -12 20 -19 0 -8 7 -14 15 -14 8 0 15 -9 15 -21 0
-11 4 -17 10 -14 5 3 19 1 31 -6 17 -8 20 -8 14 1 -5 9 -1 10 15 5 16 -5 21
-4 18 6 -3 8 -13 13 -22 12 -11 0 -15 4 -12 12 2 7 -4 15 -15 18 -13 3 -19 0
-19 -10 0 -11 -7 -8 -25 11 -14 15 -25 31 -25 37 0 9 -4 10 -32 2z"/>
<path d="M2518 1394 c-3 -3 -4 -13 -1 -23 3 -13 11 -17 24 -14 15 4 16 9 8 24
-10 19 -21 24 -31 13z"/>
</g>
</svg>
